<?xml version="1.0" encoding="utf-8"?>
<!-- Generator: Adobe Illustrator 21.0.0, SVG Export Plug-In . SVG Version: 6.00 Build 0)  -->
<svg version="1.1" id="Layer_1" xmlns="http://www.w3.org/2000/svg" xmlns:xlink="http://www.w3.org/1999/xlink" x="0px" y="0px"
	 viewBox="0 0 800 600" enable-background="new 0 0 800 600" xml:space="preserve">
<g>
	<path d="M11.2,101.6c12.3,6.4,23.8,14.3,35.7,21.4c9.4,5.5,18.3,11.9,27.8,17.2c7.8,5.3,16.1,9.8,24,15
		c9.1,5.6,18.4,10.8,27.3,16.7c5.8,3.6,11.8,6.8,17.4,10.6c42.9,26.9,86.3,52.9,129.2,79.8c11.8,7.4,21.3,18.9,24.9,32.4
		c1.6,6.4,3.6,13.1,1.9,19.7c-3.2,15.4-9.2,30-14.1,44.9c-4.4,11.1-7.2,22.8-12.2,33.7c-6.5-7-12.7-14.4-17.4-22.8
		c-6.8-11.6-9.7-25-10.8-38.3c-0.4-11,0.2-22-0.1-33c-0.3-9.2-5.5-17.5-12-23.7c-8.5-7.4-19.5-10.9-29.5-15.5
		c-38.3-17.1-76.6-34.1-115-51c-13.9-7-27.5-15.4-37.8-27.2c-6.2-7.3-12.3-15-16.5-23.6c-2.8-5.2-4.8-10.6-7-16.1
		C21,128.7,16.5,115,11.2,101.6z"/>
	<path d="M781.7,104.6c2.3-1.3,4.8-2.3,7.3-3c-0.9,3.9-2.2,7.8-3.7,11.5c-5.8,15.1-11.5,30.3-18.2,45c-8.8,16.6-21.6,31.3-37.4,41.6
		c-9.7,6.2-19.9,11.3-30.6,15.6c-14.7,7.1-30,12.9-44.7,19.9c-9.1,3.8-18,8-26.9,12c-11.1,4.4-21.7,9.7-32.7,14.5
		c-9.3,3.9-19.1,7.5-27,14.1c-6.5,6.1-11.1,14.4-11.9,23.3c-0.6,11.6,0.2,23.3-0.3,35c-1,9.9-3,19.7-6.7,29c-3.5,8-8.3,15.3-13.9,22
		c-2.5,2.9-4.5,6.4-7.9,8.4c-2.3-0.9-2.3-3.7-3.2-5.6c-3.7-9.7-6.5-19.6-10.2-29.3c-4.7-15-11.2-29.6-13.9-45.2
		c-1.3-6.3,0.5-12.6,2-18.6c3.6-13.8,13.3-25.2,25-32.9c32.5-20.3,65.3-39.9,97.8-60.3c16.7-9.9,32.8-20.6,49.5-30.5
		c11-7.1,22.5-13.2,33.4-20.6c9.5-5.5,18.6-11.6,28.1-17c7.2-4.9,14.5-9.6,22.1-13.9C765.5,114.4,773.6,109.4,781.7,104.6z"/>
	<g>
		<path d="M312.9,286.3c28.8-16.5,57.4-33.3,86.2-49.7c5,2.3,9.6,5.2,14.3,7.9c24.1,13.9,48.2,27.8,72.3,41.8
			c0.6,16.5,0.1,33.1,0.2,49.7c-0.1,16.9,0.3,33.8-0.2,50.7c-27.5,15.9-55.1,31.7-82.5,47.7c-1.4,0.7-2.8,1.5-4.3,1.7
			c-3.8-1.2-7.1-3.6-10.5-5.6c-25.2-14.6-50.5-29.1-75.7-43.8c-0.6-6.9-0.3-13.8-0.3-20.7c0-20.7,0-41.3,0-62
			C312.5,298.1,312.3,292.2,312.9,286.3z M350.8,281.8c32.2,0.3,64.5,0.3,96.7,0c-4.2-3-8.8-5.5-13.3-8c-11.8-6.5-23.1-13.8-35.1-20
			C382.9,263,366.7,272.3,350.8,281.8z M452.1,284.2c-0.1,34.9-0.1,69.8,0,104.6c6.3-3.5,12.7-7,18.8-11c0.2-27.6,0.2-55.1,0-82.7
			C464.8,291.3,458.4,287.8,452.1,284.2z M327.8,295.1c-0.2,3.9-0.3,7.9-0.2,11.9c0.2,23.6-0.2,47.3,0.2,70.9
			c5.2,3.4,10.6,6.5,16.2,9.3c0.2-33.8,0.2-67.5,0-101.3C338.3,288.6,333,291.7,327.8,295.1z M367.7,305.7
			c-0.3,20.2-0.3,40.4,0,60.6c4.2,0.3,8.4,0.3,12.5,0c0.3-13.7,0.3-27.4-0.1-41.1c9,11.5,19.1,22,28.3,33.3c2.4,2.7,4.5,5.7,7.7,7.5
			c3.9,1,8,0.4,12,0.2c0.3-20.2,0.3-40.4,0-60.6c-4.2-0.3-8.4-0.3-12.5,0c-0.4,14.1-0.2,28.1-0.1,42.2
			c-8.8-11.6-18.6-22.4-27.9-33.7c-2.5-2.9-4.7-6.3-8-8.3C375.8,305,371.7,305.6,367.7,305.7z M348.9,390.1
			c11.2,6.9,22.8,13.2,34.1,19.9c5,2.7,9.6,5.9,14.7,8.4c2.4,1.2,4.7-0.9,6.8-1.9c14.8-9,30.2-17.1,44.9-26.3
			c-8.5-0.4-16.9-0.1-25.4-0.2C399,390.1,373.9,389.8,348.9,390.1z"/>
	</g>
	<g>
		<path d="M298.1,453.1c6.6-0.2,13.2-0.2,19.9,0c0.2,6.6,0.2,13.2,0,19.8c-6.6,0.2-13.2,0.2-19.8,0
			C297.9,466.3,297.9,459.7,298.1,453.1z M302.1,457.1c-0.1,4-0.1,7.9,0,11.9c4,0.1,7.9,0.1,11.9,0c0.1-4,0.1-7.9,0-11.9
			C310,456.9,306,456.9,302.1,457.1z"/>
	</g>
	<path d="M338,453.1c6.7-0.2,13.3-0.2,20,0c0,1.3,0,2.5,0,3.8c-5.3,0.1-10.7,0.1-16,0.2c0,1.3,0,2.5,0,3.8
		c5.3,0.1,10.6,0.1,15.9,0.1c0.1,4,0.1,7.9,0,11.9c-6.6,0.2-13.3,0.2-20,0c0-1.3,0-2.6,0-3.8c5.3-0.1,10.7-0.1,16-0.1
		c0-1.3,0-2.6,0-3.8c-5.3-0.1-10.6-0.1-15.9-0.1C337.9,461,337.9,457,338,453.1z"/>
	<path d="M426.1,453c1.3,0,2.5,0,3.8,0c0.2,6.7,0.2,13.3,0,20c-1.3,0-2.6,0-3.8,0C425.9,466.3,425.9,459.7,426.1,453z"/>
	<path d="M458.2,452.6c2,0.5,4.3,0.7,5.7,2.5c3.4,3.7,6.4,7.8,10,11.3c0.1-4.5,0.1-8.9,0.2-13.4c1.3,0,2.5,0,3.8,0
		c0.2,6.8,0.3,13.6-0.1,20.4c-2-0.5-4.3-0.7-5.8-2.5c-3.5-3.6-6.5-7.6-9.9-11.1c-0.1,4.4-0.1,8.8-0.2,13.2c-1.3,0-2.6,0-3.8,0
		C457.9,466.2,457.8,459.4,458.2,452.6z"/>
	<path d="M498.1,453.1c6.6-0.2,13.3-0.2,19.9,0c0,1.3,0,2.5,0,3.8c-5.3,0.1-10.6,0.1-15.9,0.1c-0.1,4-0.1,7.9,0,11.8
		c4,0.1,8,0.1,12,0c-0.1-1.1-0.2-2.2-0.3-3.3c-1.2-0.4-2.4-0.8-3.6-1.2c-0.1-1.1-0.2-2.3-0.2-3.4c2.7,0,5.4-0.1,8-0.1
		c0.1,4,0.1,8,0,11.9c-6.6,0.2-13.3,0.2-19.9,0C497.9,466.3,497.9,459.7,498.1,453.1z"/>
	<path d="M538,453.1c6.7-0.2,13.3-0.2,20,0c0,1.3,0,2.5,0,3.8c-5.3,0.1-10.7,0.1-16,0.2c0,1.3,0,2.5,0,3.8c5.3,0.1,10.6,0.1,16,0.1
		c0.1,4,0.1,7.9,0,11.9c-6.7,0.2-13.3,0.2-20,0c0-1.3,0-2.6,0-3.8c5.3-0.1,10.7-0.1,16-0.1c0-1.3,0-2.6,0-3.8
		c-5.3-0.1-10.6-0.1-15.9-0.1C537.9,461,537.9,457,538,453.1z"/>
</g>
<g>
	<path fill="#FF4C00" d="M737.2,207.1c2.8-1.6,5.7-3.2,9-3.4c-0.7,5.5-4.4,9.9-6.6,14.8c-1.7,3.8-3.8,7.5-6,11.1
		c-2.7,4.4-4.6,9.2-7.5,13.5c-4.3,6-8.1,12.4-13.7,17.4c-6.3,6.8-14.3,11.8-21.7,17.3c-13.8,8.7-29.9,12.5-45.1,18
		c-12.6,5-25.8,8.3-38.4,13.5c-8.3,1.8-15.8,6.1-24.1,8.1c-8,2-15.3,6.4-23.6,7.2c0.6-2.7,1.7-5.3,3.7-7.3
		c18.3-22.1,39.6-42.2,64.7-56.4c10.7-6.7,22.6-11.3,33.6-17.3c3.6-1.9,7.6-2.8,11.2-4.7C693.9,227.4,715.9,218,737.2,207.1z"/>
	<path fill="#FF4C00" d="M54.8,204.6c14.8,6.6,29,14.5,43.9,20.9c9.9,4.6,19.5,9.8,29.3,14.5c10,4,19.5,9.1,29.1,13.9
		c17.4,8.4,33.6,19.1,48.2,31.8c10.8,10.1,21.5,20.6,30.8,32.2c1.4,1.6,2.3,3.6,3.2,5.5c-7.9-1.7-15.3-5.2-23.1-7.4
		c-6.9-1.9-13.2-5.2-20.1-7c-12.5-4.4-25-8.6-37.6-12.8c-15.6-6-32-10-46.6-18.2c-7.5-4.6-14.7-9.9-20.9-16.1
		c-4.9-4.8-10-9.5-13.5-15.4c-5.4-7.5-9.4-15.9-14.1-23.8C60.6,216.6,57.2,210.8,54.8,204.6z"/>
	<path fill="#FF4C00" d="M367.7,305.7c4-0.1,8.1-0.8,12,0.2c3.3,2,5.5,5.4,8,8.3c9.3,11.3,19.1,22,27.9,33.7
		c-0.1-14.1-0.3-28.1,0.1-42.2c4.2-0.3,8.4-0.3,12.5,0c0.3,20.2,0.3,40.4,0,60.6c-4,0.1-8.1,0.8-12-0.2c-3.2-1.8-5.3-4.9-7.7-7.5
		c-9.3-11.2-19.3-21.8-28.3-33.3c0.4,13.7,0.4,27.4,0.1,41.1c-4.2,0.3-8.4,0.3-12.5,0C367.4,346.1,367.4,325.9,367.7,305.7z"/>
</g>
<g>
	<path fill="#FF6A00" d="M102.8,288c7.5,1.4,14.3,5.1,21.5,7.7c13.1,4.4,25.7,9.9,38.7,14.5c10.2,4.1,20.4,8.2,29.6,14.2
		c11.8,7.6,24,14.9,33.8,25.1c5,5.1,10.9,9.5,14.6,15.8c-6.1,1.4-12.1-1.1-18.2-1.3c-6.3-0.2-12.5-1.8-18.8-2.3
		c-7.2-0.8-14.5-1.8-21.6-3.1c-16.2-3.9-32-11.1-44.1-22.9c-3.8-3.9-7.9-7.4-11-11.9c-4.7-7-10.6-13.1-14.8-20.3
		C109.4,298.2,104.7,293.9,102.8,288z"/>
	<path fill="#FF6A00" d="M679.9,293.8c5.7-2.1,11.2-4.9,17.2-5.9c-1.6,5.8-5.9,10.1-9.1,15c-4.8,7.4-10.5,14.3-15.6,21.5
		c-4.7,5.6-10,10.6-15.3,15.6c-11.1,9.2-24.7,14.8-38.6,18.5c-14,2.3-28.1,4.3-42.2,5.7c-5.9,0.8-11.8,2.1-17.8,1.9
		c2.3-5.5,7.5-8.9,11.4-13.2c5.9-6.5,13-11.7,19.9-17.1c12-7.9,23.8-16.3,37.3-21.6c10.6-4.8,21.8-8.3,32.6-12.7
		C666.3,298.7,673.2,296.5,679.9,293.8z"/>
	<path fill="#FF6A00" d="M257.8,452.4c1.8,0.3,3.9,0,5.4,1.4c4,3.6,6.9,8.1,10.4,12.2c-0.1-4.4-0.1-8.9,0.1-13.3c1.5,0,3.1,0,4.6,0
		c0.3,7,0.4,14-0.1,21c-1.8-0.3-3.9,0-5.4-1.4c-4-3.5-7.1-8-10.5-12.1c0.1,4.4,0.1,8.8,0,13.2c-1.5,0-3.1,0-4.6,0
		C257.4,466.4,257.4,459.4,257.8,452.4z"/>
</g>
<g>
	<path fill="#FF9D00" d="M165.3,367.7c8.6,0.9,17.1,2.3,25.6,3.7c8.7,1.6,17.6,1.5,26.1,4.1c4.6,1.3,9.4,2,13.9,3.4
		c11.8,4.3,23.2,10,32.9,18c-9.4,5.8-19.9,10.3-30.9,11.2c-14.3,0.7-28.9-4.2-39.8-13.4c-5.2-4.2-9.3-9.4-14.4-13.7
		C173.8,377.3,169,373,165.3,367.7z"/>
	<path fill="#FF9D00" d="M612.5,370.3c7.3-1.4,14.6-2.9,22-2.9c-1.4,5.3-6.3,8.5-10,12c-5.5,4.1-9.8,9.5-14.9,14
		c-7.7,6.3-16.5,12.1-26.5,13.8c-10.7,2.9-22,1.5-32.3-2c-5-2.4-10.1-4.8-14.9-7.6c-0.4-2,1.8-2.8,3-3.9c6.8-4.8,14.1-9.1,21.9-12.1
		c7.4-3.9,15.8-5.1,23.8-7.3C593.7,372,603.2,372,612.5,370.3z"/>
	<path fill="#FF9D00" d="M377.8,452.5c1.6,0.1,3.2,0.2,4.8,0.4c-0.1,5.2,0,10.3,0.1,15.5c0.7,0,2,0,2.7,0c0.1-5.2,0.1-10.4,0.1-15.6
		c1.7,0,3.4,0,5.1,0c0,5.2,0,10.4,0.1,15.6c0.7,0,2.1,0,2.7,0c0.1-5.2,0.1-10.3,0.1-15.5c1.6-0.2,3.2-0.3,4.8-0.4
		c0.4,6.9,0.4,13.9,0.1,20.8c-6.9,0.3-13.7,0.3-20.6,0C377.4,466.4,377.4,459.4,377.8,452.5z"/>
</g>
</svg>
