<?xml version="1.0" standalone="no"?>
<!DOCTYPE svg PUBLIC "-//W3C//DTD SVG 20010904//EN"
 "http://www.w3.org/TR/2001/REC-SVG-20010904/DTD/svg10.dtd">
<svg version="1.0" xmlns="http://www.w3.org/2000/svg"
 width="800.000000pt" height="800.000000pt" viewBox="0 0 800.000000 800.000000"
 preserveAspectRatio="xMidYMid meet">
<metadata>
Created by potrace 1.11, written by Peter Selinger 2001-2013
</metadata>
<g transform="translate(0.000000,800.000000) scale(0.100000,-0.100000)"
fill="#000000" stroke="none">
<path d="M7835 5963 c-40 -21 -153 -89 -245 -148 -112 -71 -119 -75 -126 -74
-4 0 -10 -3 -13 -8 -6 -9 -130 -93 -137 -93 -2 0 -86 -51 -186 -113 -101 -63
-241 -149 -313 -192 -71 -43 -266 -163 -433 -267 -167 -103 -307 -188 -312
-188 -5 0 -10 -3 -12 -8 -2 -6 -496 -312 -617 -383 -14 -8 -30 -17 -35 -22
-25 -18 -137 -87 -142 -87 -18 0 -184 -168 -184 -187 0 -3 -6 -14 -14 -22 -31
-36 -75 -212 -71 -280 3 -43 28 -143 57 -225 11 -32 21 -63 23 -70 1 -6 5 -18
8 -26 4 -8 40 -112 81 -230 91 -265 93 -270 106 -270 12 0 46 35 83 83 12 16
32 41 43 56 52 63 117 204 130 275 2 17 7 39 10 48 14 46 16 78 19 258 4 241
7 269 41 339 49 100 121 155 304 233 52 22 101 45 109 52 8 6 16 10 17 9 4 -3
51 17 164 69 41 19 77 34 80 34 3 0 41 17 85 38 44 21 100 46 125 56 25 10 74
32 109 49 36 17 70 31 78 31 7 0 13 4 13 8 0 4 10 8 22 9 11 1 24 6 27 11 3 5
20 13 36 19 77 26 427 192 488 230 37 24 70 43 73 43 21 0 218 202 269 275 52
76 137 244 129 257 -3 4 -1 8 3 8 8 0 39 71 34 78 -1 1 5 15 13 31 9 16 22 46
29 67 8 22 31 83 51 138 20 54 36 100 36 102 0 9 -27 2 -55 -13z"/>
<path d="M120 5967 c0 -2 23 -63 50 -136 152 -404 225 -536 376 -686 127 -126
227 -183 619 -356 176 -78 347 -154 380 -169 33 -15 134 -60 225 -100 91 -40
198 -88 239 -106 40 -19 84 -37 97 -40 13 -3 24 -10 24 -15 0 -5 6 -9 14 -9
31 0 144 -68 192 -115 55 -54 94 -115 94 -145 0 -10 4 -21 9 -24 4 -3 9 -94 9
-203 1 -210 4 -249 27 -350 3 -13 7 -33 10 -45 5 -26 10 -37 52 -128 26 -55
89 -148 171 -249 19 -24 20 -24 30 -4 10 19 192 537 196 558 1 6 4 15 7 20 4
6 19 57 34 115 21 80 26 118 21 160 -21 204 -117 341 -334 478 -62 40 -117 72
-122 72 -6 0 -10 5 -10 10 0 6 -4 10 -9 10 -5 0 -58 31 -118 68 -59 38 -198
123 -308 191 -110 67 -207 126 -215 131 -157 98 -511 316 -560 346 -36 21 -72
44 -81 49 -9 6 -52 32 -95 58 -43 27 -117 72 -164 101 -47 28 -96 58 -109 66
-13 8 -54 34 -90 57 -36 24 -72 43 -78 43 -7 0 -13 3 -13 8 0 4 -26 23 -57 41
-32 19 -60 37 -63 40 -3 3 -21 15 -40 25 -19 11 -57 34 -85 51 -27 18 -79 50
-115 71 -36 21 -66 42 -68 47 -2 4 -8 7 -13 7 -5 0 -31 14 -57 30 -43 26 -72
37 -72 27z"/>
<path d="M7340 4916 c-98 -51 -530 -262 -640 -313 -250 -116 -492 -245 -528
-279 -6 -7 -21 -16 -32 -19 -11 -3 -20 -11 -20 -16 0 -5 -6 -9 -14 -9 -8 0
-16 -3 -18 -8 -1 -4 -34 -32 -73 -62 -65 -50 -295 -274 -340 -330 -11 -14 -32
-40 -48 -58 -15 -19 -25 -38 -21 -43 3 -5 -1 -9 -8 -9 -10 0 -10 -2 1 -9 7 -5
30 -3 55 5 107 34 263 87 281 95 11 5 144 51 295 103 151 52 289 99 305 106
17 6 40 14 52 16 12 2 42 13 67 24 25 10 46 17 46 13 0 -3 7 0 15 7 8 7 15 10
15 7 0 -13 165 77 243 133 88 63 197 167 241 230 33 47 152 254 205 358 60
118 51 125 -79 58z"/>
<path d="M567 4913 c19 -46 94 -190 134 -258 16 -27 33 -57 36 -65 4 -8 10
-17 13 -20 4 -3 19 -24 33 -47 28 -44 149 -168 207 -212 19 -14 37 -28 40 -31
14 -14 70 -50 79 -50 5 0 11 -3 13 -7 6 -15 126 -66 278 -119 85 -30 162 -57
170 -61 8 -3 20 -7 25 -8 6 -1 33 -10 60 -20 28 -9 120 -41 205 -70 85 -30
189 -66 230 -80 41 -15 82 -29 90 -31 8 -2 53 -17 100 -33 105 -38 115 -39 99
-8 -36 68 -271 309 -421 430 -25 20 -51 37 -56 37 -6 0 -12 4 -14 8 -6 16
-223 153 -223 141 0 -2 -13 5 -30 16 -31 21 -86 49 -535 265 -140 67 -309 149
-376 181 -66 33 -126 59 -132 59 -7 0 -12 5 -12 10 0 6 -7 10 -14 10 -13 0
-13 -5 1 -37z"/>
<path d="M3949 4609 c-24 -16 -47 -29 -52 -29 -4 0 -24 -11 -45 -23 -32 -21
-329 -193 -405 -236 -16 -9 -36 -20 -45 -26 -9 -5 -74 -43 -144 -83 -71 -41
-129 -79 -129 -85 -1 -7 -2 -232 -3 -501 l-2 -489 53 -33 c28 -19 54 -34 56
-34 2 0 67 -37 143 -81 76 -45 153 -90 169 -99 17 -9 50 -29 75 -44 25 -15 53
-29 63 -33 9 -3 17 -9 17 -14 0 -5 6 -9 13 -9 6 -1 53 -25 102 -55 50 -30 109
-65 133 -77 l42 -22 53 27 c28 16 108 61 177 102 69 41 129 74 133 74 5 1 14
7 22 14 7 6 119 73 249 147 l235 135 1 491 c0 270 -2 499 -6 508 -3 9 -10 16
-15 16 -5 0 -28 12 -52 27 -23 15 -53 34 -67 41 -14 7 -34 18 -45 25 -11 7
-54 31 -95 55 -41 24 -88 51 -105 61 -16 10 -50 29 -75 43 -25 14 -74 42 -110
64 -36 21 -66 36 -66 33 -1 -2 -10 3 -20 12 -11 9 -62 41 -115 72 l-97 55 -43
-29z m91 -174 c22 -14 42 -25 44 -25 2 0 50 -27 106 -60 56 -33 106 -60 111
-60 5 0 9 -3 9 -8 0 -4 12 -13 28 -19 15 -7 52 -28 82 -47 l55 -35 -478 0
c-297 0 -477 3 -477 9 0 6 5 10 10 10 6 0 70 36 144 80 74 44 137 80 139 80 2
0 42 22 88 50 46 27 87 50 92 50 4 0 25 -11 47 -25z m504 -292 c4 -5 11 -8 14
-8 4 0 40 -20 80 -44 l72 -43 0 -414 -1 -413 -57 -33 c-78 -46 -119 -68 -125
-68 -4 0 -8 195 -8 345 1 11 1 49 0 85 0 36 0 72 0 80 1 8 1 129 2 268 0 138
4 252 8 252 4 0 11 -3 15 -7z m-1104 -140 c0 -76 0 -237 0 -358 -1 -121 -1
-227 -1 -235 0 -15 -1 -165 -1 -185 0 -5 1 -14 2 -20 1 -5 2 -25 1 -43 l-1
-32 -47 24 c-27 14 -63 35 -82 49 l-35 24 0 403 c-1 345 1 407 14 422 11 13
134 86 147 88 2 0 3 -62 3 -137z m747 -903 c250 2 295 1 300 -3 1 -2 -72 -45
-163 -97 -91 -52 -171 -101 -179 -107 -7 -7 -17 -13 -22 -13 -5 0 -26 -12 -47
-26 -42 -29 -91 -46 -101 -36 -4 4 -10 7 -13 7 -4 0 -61 32 -127 71 -66 39
-166 98 -222 130 -56 32 -102 63 -103 67 0 4 93 7 206 7 113 -1 208 1 211 4 3
3 10 3 14 0 5 -3 115 -4 246 -4z"/>
<path d="M1030 4111 c0 -9 17 -35 108 -166 179 -257 289 -365 454 -447 125
-62 233 -90 428 -113 25 -3 61 -7 80 -10 19 -2 60 -7 90 -10 30 -4 66 -8 80
-10 14 -2 44 -7 68 -10 23 -3 50 -2 59 3 14 8 0 26 -84 108 -97 96 -143 138
-174 159 -277 185 -342 221 -504 280 -27 10 -54 22 -59 27 -6 4 -16 8 -23 8
-8 0 -30 7 -51 16 -20 10 -42 18 -47 19 -6 2 -40 14 -75 28 -66 25 -105 39
-105 37 0 0 -45 18 -100 40 -104 42 -145 54 -145 41z"/>
<path d="M6905 4104 c-22 -8 -47 -17 -55 -21 -8 -3 -17 -7 -20 -8 -3 -1 -12
-5 -20 -8 -17 -7 -191 -74 -375 -143 -241 -91 -413 -185 -590 -323 -82 -63
-255 -235 -255 -252 0 -11 60 -9 155 6 17 2 53 7 80 10 28 3 61 7 75 9 14 2
52 7 85 11 33 4 69 9 80 11 11 2 40 7 65 10 51 7 158 38 210 60 69 31 156 77
190 102 40 29 174 163 207 207 13 17 36 48 53 70 16 22 33 45 38 50 36 47 124
180 132 200 11 29 4 31 -55 9z"/>
<path d="M6218 3313 c-98 -17 -147 -24 -183 -28 -111 -12 -152 -19 -245 -42
-99 -24 -261 -85 -287 -108 -7 -5 -41 -28 -77 -50 -36 -22 -66 -44 -66 -50 0
-6 30 -27 68 -47 102 -54 158 -69 272 -72 166 -5 296 55 462 212 137 130 173
167 176 184 3 20 -7 21 -120 1z"/>
<path d="M1669 3302 c6 -11 38 -44 72 -73 34 -30 88 -79 120 -111 96 -94 170
-141 264 -171 125 -39 219 -39 337 2 31 11 59 17 62 14 3 -4 6 -2 6 4 0 5 23
20 50 33 28 13 49 28 47 34 -5 15 -104 82 -162 110 -111 53 -242 97 -335 112
-60 10 -88 14 -135 19 -55 7 -94 12 -140 20 -69 12 -93 15 -143 21 -51 5 -53
5 -43 -14z"/>
<path d="M2579 2471 c-4 -21 -3 -201 1 -202 3 0 13 -2 22 -4 21 -4 25 7 23 73
l-1 52 60 -65 c89 -94 98 -90 101 51 1 89 1 93 -21 97 -28 5 -31 -3 -29 -70 1
-29 -2 -53 -6 -53 -4 0 -15 12 -24 27 -33 50 -76 91 -101 96 -13 2 -25 1 -25
-2z"/>
<path d="M3778 2461 c-3 -9 -4 -56 -3 -105 l1 -90 102 -1 c56 0 103 2 103 5 1
3 3 43 4 90 2 97 -6 125 -34 111 -15 -8 -18 -22 -16 -81 1 -57 -2 -70 -15 -70
-12 0 -15 13 -14 72 1 75 -5 89 -35 81 -14 -4 -17 -16 -16 -71 2 -79 -2 -97
-19 -83 -8 7 -12 35 -10 80 2 65 1 69 -21 73 -16 3 -25 0 -27 -11z"/>
<path d="M2980 2370 l0 -100 100 0 100 0 1 45 c0 25 1 61 1 80 0 82 9 75 -102
75 l-100 0 0 -100z m160 0 l0 -60 -60 0 -60 0 0 60 0 60 60 0 60 0 0 -60z"/>
<path d="M3380 2410 l0 -60 80 0 c73 0 80 -2 80 -20 0 -11 -3 -19 -7 -19 -5 1
-41 1 -80 0 -66 -1 -73 -3 -73 -21 0 -19 7 -20 100 -20 l100 0 0 60 0 60 -80
0 c-73 0 -80 2 -80 20 0 18 7 20 80 20 73 0 80 2 80 20 0 19 -7 20 -100 20
l-100 0 0 -60z"/>
<path d="M4260 2370 c0 -93 1 -100 20 -100 19 0 20 7 20 100 0 93 -1 100 -20
100 -19 0 -20 -7 -20 -100z"/>
<path d="M4578 2403 c-5 -105 0 -133 23 -133 19 0 20 2 19 109 l0 24 26 -29
c117 -129 130 -134 136 -46 1 31 2 76 0 100 -3 34 -7 42 -23 42 -18 0 -20 -6
-19 -42 4 -97 5 -96 -61 -24 -81 87 -96 87 -101 -1z"/>
<path d="M4980 2370 l0 -101 100 2 100 1 0 58 c0 62 -5 69 -51 62 -20 -3 -27
-9 -26 -23 1 -11 9 -19 19 -19 11 0 18 -7 18 -20 0 -18 -7 -20 -58 -20 l-59 0
-2 60 -2 60 80 0 c74 0 81 2 81 20 0 19 -7 20 -100 20 l-100 0 0 -100z"/>
<path d="M5380 2410 l0 -59 77 -3 c65 -3 78 -6 81 -20 3 -16 -6 -18 -77 -18
-74 0 -81 -2 -81 -20 0 -19 7 -20 100 -20 l100 0 0 60 0 60 -80 0 c-73 0 -80
2 -80 20 0 18 7 20 80 20 73 0 80 2 80 20 0 19 -7 20 -100 20 l-100 0 0 -60z"/>
</g>
</svg>
